<svg class="icon flat-color" width="48" height="48" data-name="Flat color" xmlns="http://www.w3.org/2000/svg" viewBox="0 0 24 24" style="width:48px;height:48px"><circle cx="12" cy="12" r="10" fill="#3c4f5c"/><path d="M13.5 16a1.36 1.36 0 010 .29 1.31 1.31 0 01-.09.28 1.26 1.26 0 01-.13.26 1.57 1.57 0 01-.42.42l-.26.14-.28.08a1.42 1.42 0 01-.58 0l-.28-.08-.26-.14a2.11 2.11 0 01-.23-.19A1.5 1.5 0 0110.5 16a1.36 1.36 0 010-.29 2.29 2.29 0 01.08-.28 2.15 2.15 0 01.14-.26 2.11 2.11 0 01.19-.23 1.55 1.55 0 012.12 0A1.52 1.52 0 0113.5 16zm-.44-5.06a1.5 1.5 0 00-1.35-.41l-.28.08-.26.14a1.57 1.57 0 00-.42.42 2.15 2.15 0 00-.14.26 2.29 2.29 0 00-.08.28 1.42 1.42 0 000 .58 2.29 2.29 0 00.08.28 2.15 2.15 0 00.14.26 1.57 1.57 0 00.42.42l.26.14.28.08a1.36 1.36 0 00.29 0 1.5 1.5 0 001.06-.44 2.11 2.11 0 00.19-.23 1.26 1.26 0 00.13-.26 1.31 1.31 0 00.09-.28 1.36 1.36 0 000-.29 1.52 1.52 0 00-.41-1.03zm0-4a1.55 1.55 0 00-2.12 0 2.11 2.11 0 00-.19.23 2.15 2.15 0 00-.14.26 2.29 2.29 0 00-.08.28 1.42 1.42 0 000 .58 2.29 2.29 0 00.08.28 2.15 2.15 0 00.14.26 1.57 1.57 0 00.42.42l.26.14.28.08a1.36 1.36 0 00.29 0 1.5 1.5 0 001.06-.44 2.11 2.11 0 00.19-.23 1.26 1.26 0 00.13-.26 1.31 1.31 0 00.09-.28 1.36 1.36 0 000-.29 1.52 1.52 0 00-.41-1.03z" fill="#ffc105"/></svg>