<svg class="icon flat-color" width="48" height="48" data-name="Flat color" xmlns="http://www.w3.org/2000/svg" viewBox="0 0 24 24" style="width:48px;height:48px"><path d="M20.89 9.78h-.65a1.16 1.16 0 01-1-.74V9a1.13 1.13 0 01.22-1.26l.46-.46a1.13 1.13 0 000-1.58l-1.63-1.56a1.13 1.13 0 00-1.58 0l-.46.46a1.13 1.13 0 01-1.25.22 1.16 1.16 0 01-.74-1v-.71A1.11 1.11 0 0013.11 2h-2.22a1.11 1.11 0 00-1.11 1.11v.65a1.16 1.16 0 01-.74 1H9a1.13 1.13 0 01-1.25-.16l-.46-.46a1.13 1.13 0 00-1.58 0L4.14 5.71a1.13 1.13 0 000 1.58l.46.46A1.13 1.13 0 014.82 9a1.16 1.16 0 01-1 .74h-.71A1.11 1.11 0 002 10.89v2.22a1.11 1.11 0 001.11 1.11h.65a1.16 1.16 0 011 .74 1.13 1.13 0 01-.22 1.26l-.46.46a1.13 1.13 0 000 1.58l1.57 1.57a1.13 1.13 0 001.58 0l.46-.46A1.13 1.13 0 019 19.18a1.16 1.16 0 01.74 1v.65A1.11 1.11 0 0010.89 22h2.22a1.11 1.11 0 001.11-1.11v-.65a1.16 1.16 0 01.74-1 1.13 1.13 0 011.26.22l.46.46a1.13 1.13 0 001.58 0l1.57-1.57a1.13 1.13 0 000-1.58l-.46-.46a1.13 1.13 0 01-.19-1.31 1.16 1.16 0 011-.74h.65A1.11 1.11 0 0022 13.11v-2.22a1.11 1.11 0 00-1.11-1.11z" fill="#3c4f5c"/><circle cx="12" cy="12" r="4" fill="#ffc105"/></svg>