<svg class="icon flat-color" width="48" height="48" id="home-alt2" data-name="Flat color" xmlns="http://www.w3.org/2000/svg" viewBox="0 0 24 24" style="width: 48px; height: 48px;"><rect id="secondary" x="8" y="13" width="8" height="9" style="fill: rgb(255, 193, 5);"></rect><path id="primary" d="M19.71,9.29l-7-7a1,1,0,0,0-1.42,0l-7,7A1,1,0,0,0,4,10V21a1,1,0,0,0,1,1H8a1,1,0,0,0,.54-.18,1,1,0,0,0,.17-.11,1,1,0,0,0,.11-.17A1,1,0,0,0,9,21V15a1,1,0,0,1,1-1h4a1,1,0,0,1,1,1v6a1,1,0,0,0,1,1h3a1,1,0,0,0,1-1V10A1,1,0,0,0,19.71,9.29Z" style="fill: rgb(60, 79, 92);"></path></svg>