<svg class="icon flat-color" width="48" height="48" id="more-circle-vertical" data-name="Flat color" xmlns="http://www.w3.org/2000/svg" viewBox="0 0 24 24" style="width: 48px; height: 48px;"><circle id="primary" cx="12" cy="12" r="10" style="fill: rgb(60, 79, 92);"></circle><path id="secondary" d="M13.5,16a1.36,1.36,0,0,1,0,.29,1.31,1.31,0,0,1-.09.28,1.26,1.26,0,0,1-.13.26,1.57,1.57,0,0,1-.42.42l-.26.14-.28.08a1.42,1.42,0,0,1-.58,0l-.28-.08-.26-.14a2.11,2.11,0,0,1-.23-.19A1.5,1.5,0,0,1,10.5,16a1.36,1.36,0,0,1,0-.29,2.29,2.29,0,0,1,.08-.28,2.15,2.15,0,0,1,.14-.26,2.11,2.11,0,0,1,.19-.23,1.55,1.55,0,0,1,2.12,0A1.52,1.52,0,0,1,13.5,16Zm-.44-5.06a1.5,1.5,0,0,0-1.35-.41l-.28.08-.26.14a1.57,1.57,0,0,0-.42.42,2.15,2.15,0,0,0-.14.26,2.29,2.29,0,0,0-.08.28,1.42,1.42,0,0,0,0,.58,2.29,2.29,0,0,0,.08.28,2.15,2.15,0,0,0,.14.26,1.57,1.57,0,0,0,.42.42l.26.14.28.08a1.36,1.36,0,0,0,.29,0,1.5,1.5,0,0,0,1.06-.44,2.11,2.11,0,0,0,.19-.23,1.26,1.26,0,0,0,.13-.26,1.31,1.31,0,0,0,.09-.28,1.36,1.36,0,0,0,0-.29A1.52,1.52,0,0,0,13.06,10.94Zm0-4a1.55,1.55,0,0,0-2.12,0,2.11,2.11,0,0,0-.19.23,2.15,2.15,0,0,0-.14.26,2.29,2.29,0,0,0-.08.28,1.42,1.42,0,0,0,0,.58,2.29,2.29,0,0,0,.08.28,2.15,2.15,0,0,0,.14.26,1.57,1.57,0,0,0,.42.42l.26.14.28.08a1.36,1.36,0,0,0,.29,0,1.5,1.5,0,0,0,1.06-.44,2.11,2.11,0,0,0,.19-.23,1.26,1.26,0,0,0,.13-.26,1.31,1.31,0,0,0,.09-.28,1.36,1.36,0,0,0,0-.29A1.52,1.52,0,0,0,13.06,6.94Z" style="fill: rgb(255, 193, 5);"></path></svg>